<svg width="176" height="40" fill="none" xmlns="http://www.w3.org/2000/svg"><path d="M0 0l23.476.008c3.64 0 7.28-.027 10.921.02.808.02 1.607.176 2.362.463 1.83.688 2.813 2.115 2.842 4.038.063 4.234.047 8.47 0 12.708-.007.566-.358 1.15-.627 1.688-.172.343-.488.615-.761.946.128.137.263.276.392.42.68.753 1.046 1.602 1.039 2.65-.027 3.821-.01 7.645-.011 11.465 0 3.07-1.291 4.642-4.303 5.236a.977.977 0 00-.184.072H0V0zm32.64 18.17c.349 0 .652-.042.94.007.986.169 1.67-.331 2.304-.975a1.771 1.771 0 00.544-1.33c-.018-3.474-.01-6.949-.01-10.424 0-1.16-1.037-2.184-2.217-2.184H3.388v33.213h.662c9.928 0 19.856-.013 29.784.019 1.02 0 1.688-.47 2.29-1.145.177-.216.277-.484.284-.763.018-3.64.02-7.281.007-10.921 0-.9-1.28-2.117-2.172-2.121H32.64l-.002-3.377zm69.309 12.112V9.462c.172-.01.317-.025.462-.025 2.745 0 5.492-.057 8.24.014 3.43.09 6.401 1.262 8.569 4.05 3.833 4.925 2.721 14.907-6.629 16.57a15.35 15.35 0 01-2.515.198c-2.513.025-5.027.009-7.545.009l-.582.004zm1.503-1.39h.584c2.002 0 4.003.018 6.005-.01a13.752 13.752 0 002.267-.193c7.799-1.422 8.859-9.55 5.993-13.88-1.825-2.757-4.558-3.872-7.744-3.98-2.231-.071-4.468-.014-6.699-.013-.127 0-.255.02-.397.03l-.009 18.046zm47.259-19.429h1.504v20.771c-.716.12-1.254.063-1.787-.62-4.416-5.7-8.885-11.357-13.338-17.027-.066-.086-.142-.163-.29-.331v17.985h-1.489V9.517c.85-.244 1.209-.132 1.723.523a30446.82 30446.82 0 0013.403 17.103c.059.077.127.147.27.31l.004-17.99zM86.652 30.425c-5.606 0-9.516-2.515-11.037-6.652C73.151 17.07 77.18 9.83 84.888 9.324c3.232-.213 6.124.64 8.52 2.89 1.713 1.609 2.711 3.61 3.043 5.926.425 2.973-.125 5.744-1.973 8.158-2.198 2.874-5.217 4.083-7.825 4.127zm-.915-1.412c3.526 0 6.596-1.672 8.13-4.59 1.673-3.177 1.657-6.421-.228-9.497-1.823-2.979-4.645-4.25-8.087-4.222-5.858.05-10.075 5.018-8.936 10.994.85 4.468 4.476 7.315 9.121 7.315zm88.66-9.04h1.412c.011.154.03.298.03.44 0 2.316 0 4.632.009 6.95a.826.826 0 01-.332.718c-1.588 1.326-3.439 2.014-5.46 2.25-2.899.338-5.659-.104-8.091-1.797-3.252-2.261-4.653-5.474-4.417-9.366.351-5.742 4.776-9.818 10.582-9.878 2.208-.021 4.313.354 6.206 1.55.568.359 1.078.806 1.664 1.25l-1.003 1.076c-1.045-.992-2.2-1.717-3.552-2.085-3.951-1.064-8.347-.034-10.789 3.5-3.592 5.196-1.149 13.218 6.255 14.318 2.528.376 4.942.016 7.101-1.49.298-.204.397-.427.392-.777-.015-2.018-.008-4.036-.008-6.056l.001-.603zM72.285 12.176l-.986.916c-3.503-3.52-10.149-3.078-13.366.548-3.2 3.602-3.139 9.124.15 12.598 3.245 3.426 9.608 3.902 13.232.329l.935.928c-2.852 3.44-10.173 4.212-14.605.404-4.467-3.833-4.786-11.182-.763-15.382 4.254-4.438 12.106-4.043 15.403-.341zm55.633 18.078h-1.444V9.477h1.444v20.777z" fill="#F9FAFB"/><path d="M26.642 21.545h-8.92v-3.338h12.169c.008.18.023.356.023.532v9.182c0 2.311-1.246 3.54-3.574 3.54H10.256c-2.14 0-3.427-1.225-3.435-3.368-.022-5.525-.022-11.052 0-16.58.013-1.97 1.32-3.25 3.306-3.254 5.526-.01 11.053-.01 16.58 0 1.634 0 2.82.862 3.065 2.468.21 1.373.147 2.789.206 4.217h-3.271v-2.349c0-.835-.189-1.021-1.022-1.021H11.091c-.865-.001-1.063.187-1.063 1.035v14.442c0 .86.225 1.087 1.092 1.092h14.594c.695 0 .981-.227.986-.88.016-1.836.005-3.674 0-5.509a1.205 1.205 0 00-.058-.21z" fill="#F9FAFB"/></svg>